<svg xmlns="http://www.w3.org/2000/svg" xml:space="preserve" viewBox="-2.5 -2.5 365 185"><path fill="#fff" d="M299.75 60.587c-4.108 0-8.123.411-12.001 1.188C275.799 25.9 241.719 0 201.519 0a90.9 90.9 0 0 0-78.847 45.363c-.919-.036-1.84-.07-2.769-.07A68.06 68.06 0 0 0 63.494 75.07a54 54 0 0 0-10.071-.953C23.92 74.117.003 97.819.003 127.06S23.92 180 53.424 180h246.333c33.28 0 60.25-26.73 60.25-59.71 0-32.972-26.97-59.703-60.25-59.703z"/><path fill="#231f20" d="M299.75 182.5H53.42c-30.834 0-55.92-24.87-55.92-55.44s25.086-55.441 55.922-55.441c2.96 0 5.957.241 8.931.716 13.225-18.527 34.616-29.541 57.549-29.541q.687.001 1.369.02c16.79-27.991 47.39-45.314 80.25-45.314 39.618 0 74.665 24.595 87.896 61.431a64 64 0 0 1 10.34-.844c34.599 0 62.747 27.905 62.747 62.206-.01 34.3-28.16 62.21-62.76 62.21zM53.42 76.62c-28.079 0-50.922 22.628-50.922 50.443s22.843 50.44 50.921 50.44h246.33c31.842 0 57.747-25.663 57.747-57.207 0-31.543-25.905-57.206-57.747-57.206-3.863 0-7.736.383-11.51 1.139l-2.165.434-.698-2.095c-11.97-35.924-45.67-60.062-83.86-60.062-31.581 0-60.963 16.903-76.682 44.113l-.754 1.306-1.507-.059a70 70 0 0 0-2.672-.068c-21.82 0-42.135 10.722-54.341 28.682l-.921 1.355-1.611-.304a52 52 0 0 0-9.615-.908z"/></svg>
