<?xml version="1.0" encoding="UTF-8"?>
<svg width="32px" height="32px" viewBox="0 0 32 32" version="1.1" xmlns="http://www.w3.org/2000/svg" xmlns:xlink="http://www.w3.org/1999/xlink">
    <title>failed</title>
    <g id="Page-1" stroke="none" stroke-width="1" fill="none" fill-rule="evenodd">
        <g id="Group" fill-rule="nonzero">
            <polygon id="Path" fill="#0B0C0C" points="0 0 32 0 32 32 0 32"></polygon>
            <path d="M16.88,7.87 L18.99,8.97 L18.99,5.86 L16.88,6.53 C16.82,6.45 16.75,6.38 16.68,6.32 C16.61,6.26 17.53,3.64 17.53,3.64 L14.49,3.64 L15.34,6.31 C15.26,6.38 15.19,6.45 15.14,6.52 C15.09,6.59 13.03,5.86 13.03,5.86 L13.03,8.97 L15.14,7.86 C15.2,7.95 15.28,8.02 15.36,8.08 L14.15,11.74 L14.15,11.75 C14.15,11.76 14.15,11.75 14.15,11.75 C14.09,11.93 14.06,12.13 14.06,12.33 C14.06,13.32 14.79,14.14 15.74,14.28 L15.78,14.28 C15.86,14.29 15.94,14.3 16.03,14.3 C16.11,14.3 16.2,14.3 16.28,14.28 L16.32,14.28 C17.27,14.14 18,13.32 18,12.33 C18,12.13 17.97,11.94 17.91,11.75 C17.85,11.56 17.91,11.75 17.91,11.74 L16.7,8.08 C16.78,8.02 16.86,7.95 16.92,7.86 M9.16,12.3 C9.72633072,12.5998609 10.4112654,12.5662016 10.9454666,12.2122578 C11.4796677,11.858314 11.7776921,11.2406977 11.7223473,10.6022746 C11.6670026,9.96385155 11.2671408,9.40673483 10.68,9.15 C9.82,8.74 8.77,9.11 8.35,9.98 C7.93,10.85 8.3,11.89 9.16,12.3 M4.82,15.87 C5.72,16.24 6.74,15.82 7.11,14.93 C7.48,14.04 7.06,13.01 6.16,12.64 C5.28,12.28 4.25,12.71 3.88,13.6 C3.51,14.49 3.94,15.51 4.82,15.87 M22.86,12.3 C22.2936693,12.5998609 21.6087346,12.5662016 21.0745334,12.2122578 C20.5403323,11.858314 20.2423079,11.2406977 20.2976527,10.6022746 C20.3529974,9.96385155 20.7528592,9.40673483 21.34,9.15 C22.2,8.74 23.25,9.11 23.67,9.98 C24.09,10.85 23.72,11.89 22.86,12.3 M27.18,15.84 C26.28,16.21 25.26,15.79 24.89,14.9 C24.52,14.01 24.94,12.98 25.84,12.61 C26.72,12.25 27.75,12.68 28.12,13.57 C28.49,14.46 28.06,15.48 27.18,15.84 M16,25.68 C19.59,25.68 22.99,25.92 26.02,26.36 C26.88,22.75 27.93,20.68 29.01,19.2 L26.98,18.48 C27.18,19.51 27.21,19.99 26.98,20.66 C26.64,20.33 26.33,19.73 26.08,18.81 L25.09,22.09 C25.69,21.68 26.15,21.41 26.68,21.4 C25.74,23.42 24.57,23.94 23.81,23.8 C22.88,23.63 22.46,22.8 22.6,22.1 C22.81,21.11 23.83,20.85 24.31,22 C25.22,20.14 23.68,19.56 22.68,20.11 C24.21,18.59 24.38,17.23 23.15,15.59 C21.43,16.9 21.41,18.2 22.18,20.03 C21.18,18.88 19.62,19.5 20.18,21.35 C20.9,20.23 21.86,20.93 21.71,22 C21.58,22.93 20.36,23.68 18.84,23.54 C16.66,23.34 16.53,21.83 16.47,20.59 C17.01,20.49 17.97,20.99 18.8,22.15 L19.1,18.67 C18.2,19.6 17.39,19.78 16.48,19.81 C16.78,18.87 18.17,17.33 18.17,17.33 L13.83,17.33 C13.83,17.33 15.21,18.87 15.52,19.81 C14.61,19.78 13.8,19.6 12.9,18.67 L13.2,22.15 C14.02,20.99 14.99,20.49 15.53,20.59 C15.48,21.84 15.35,23.34 13.16,23.54 C11.64,23.67 10.41,22.92 10.29,22 C10.14,20.94 11.1,20.23 11.82,21.35 C12.38,19.5 10.82,18.88 9.82,20.03 C10.59,18.2 10.57,16.9 8.85,15.59 C7.62,17.23 7.79,18.58 9.32,20.11 C8.33,19.56 6.78,20.14 7.69,22 C8.17,20.84 9.19,21.1 9.4,22.1 C9.54,22.8 9.12,23.63 8.19,23.8 C7.43,23.94 6.26,23.42 5.32,21.4 C5.85,21.41 6.31,21.68 6.91,22.09 L5.92,18.81 C5.67,19.73 5.35,20.33 5.02,20.66 C4.79,20 4.83,19.52 5.02,18.48 L2.99,19.2 C4.07,20.67 5.12,22.74 5.98,26.36 C9.01,25.93 12.4,25.68 15.99,25.68" id="Shape" fill="#FFFFFF"></path>
        </g>
        <g id="Group-8" transform="translate(6.000000, 6.000000)">
            <circle id="Oval" fill="#0B0C0C" cx="14" cy="14" r="14"></circle>
            <g id="error_48dp_E8EAED_FILL1_wght700_GRAD200_opsz48" transform="translate(2.333333, 2.333333)" fill="#E37464" fill-rule="nonzero">
                <path d="M11.6537037,18.8888889 C12.176749,18.8888889 12.5874486,18.749177 12.8858025,18.4697531 C13.1841564,18.1903292 13.3333333,17.7890947 13.3333333,17.2660494 C13.3333333,16.7430041 13.1884774,16.3271605 12.8987654,16.0185185 C12.6090535,15.7098765 12.2026749,15.5555556 11.6796296,15.5555556 C11.1565844,15.5555556 10.7458848,15.7079218 10.4475309,16.0126543 C10.149177,16.3171811 10,16.73107 10,17.254321 C10,17.7773663 10.144856,18.1805556 10.4345679,18.4638889 C10.7242798,18.7472222 11.1306584,18.8888889 11.6537037,18.8888889 Z M12.8754579,13.9749277 C13.1807082,13.6621644 13.3333333,13.2486576 13.3333333,12.7344073 L13.3333333,6.1173069 C13.3333333,5.62709624 13.1785104,5.22573317 12.8688645,4.91321768 C12.5594628,4.60070219 12.1588523,4.44444444 11.667033,4.44444444 C11.1996337,4.44444444 10.804884,4.60070219 10.4827839,4.91321768 C10.160928,5.22573317 10,5.62709624 10,6.1173069 L10,12.7344073 C10,13.2486576 10.1631258,13.6621644 10.4893773,13.9749277 C10.8156288,14.2879389 11.2124542,14.4444444 11.6798535,14.4444444 C12.1716728,14.4444444 12.5702076,14.2879389 12.8754579,13.9749277 Z M11.421124,22.872093 C9.84639535,22.872093 8.36183463,22.577261 6.96744186,21.9875969 C5.5730491,21.3977519 4.35808786,20.5850646 3.32255814,19.5495349 C2.28702842,18.5140052 1.47434109,17.2984109 0.884496124,15.9027519 C0.294832041,14.507093 0,13.0194574 0,11.439845 C0,9.86204134 0.295374677,8.37937984 0.886124031,6.99186047 C1.47705426,5.60452196 2.29136951,4.39010336 3.32906977,3.34860465 C4.3669509,2.30728682 5.58118863,1.48890181 6.97178295,0.893449612 C8.36219638,0.297816537 9.84431525,0 11.4181395,0 C12.9984755,0 14.4861111,0.297093023 15.8810465,0.89127907 C17.2761628,1.48546512 18.4917571,2.30213178 19.5278295,3.34127907 C20.5640827,4.38060724 21.380478,5.59719638 21.9770155,6.99104651 C22.5737339,8.38507752 22.872093,9.87379845 22.872093,11.4572093 C22.872093,13.0391731 22.5742765,14.522739 21.9786434,15.907907 C21.3831912,17.2930749 20.5648062,18.5029716 19.5234884,19.5375969 C18.4819897,20.5724031 17.2660336,21.3868088 15.8756202,21.980814 C14.4852067,22.575 13.0003747,22.872093 11.421124,22.872093 Z" id="Shape"></path>
            </g>
        </g>
    </g>
</svg>