<?xml version="1.0" encoding="UTF-8"?>
<svg width="32px" height="32px" viewBox="0 0 32 32" version="1.1" xmlns="http://www.w3.org/2000/svg" xmlns:xlink="http://www.w3.org/1999/xlink">
    <title>pending</title>
    <g id="Page-1" stroke="none" stroke-width="1" fill="none" fill-rule="evenodd">
        <g id="Group" fill-rule="nonzero">
            <polygon id="Path" fill="#0B0C0C" points="0 0 32 0 32 32 0 32"></polygon>
            <path d="M16.88,7.87 L18.99,8.97 L18.99,5.86 L16.88,6.53 C16.82,6.45 16.75,6.38 16.68,6.32 C16.61,6.26 17.53,3.64 17.53,3.64 L14.49,3.64 L15.34,6.31 C15.26,6.38 15.19,6.45 15.14,6.52 C15.09,6.59 13.03,5.86 13.03,5.86 L13.03,8.97 L15.14,7.86 C15.2,7.95 15.28,8.02 15.36,8.08 L14.15,11.74 L14.15,11.75 C14.15,11.76 14.15,11.75 14.15,11.75 C14.09,11.93 14.06,12.13 14.06,12.33 C14.06,13.32 14.79,14.14 15.74,14.28 L15.78,14.28 C15.86,14.29 15.94,14.3 16.03,14.3 C16.11,14.3 16.2,14.3 16.28,14.28 L16.32,14.28 C17.27,14.14 18,13.32 18,12.33 C18,12.13 17.97,11.94 17.91,11.75 C17.85,11.56 17.91,11.75 17.91,11.74 L16.7,8.08 C16.78,8.02 16.86,7.95 16.92,7.86 M9.16,12.3 C9.72633072,12.5998609 10.4112654,12.5662016 10.9454666,12.2122578 C11.4796677,11.858314 11.7776921,11.2406977 11.7223473,10.6022746 C11.6670026,9.96385155 11.2671408,9.40673483 10.68,9.15 C9.82,8.74 8.77,9.11 8.35,9.98 C7.93,10.85 8.3,11.89 9.16,12.3 M4.82,15.87 C5.72,16.24 6.74,15.82 7.11,14.93 C7.48,14.04 7.06,13.01 6.16,12.64 C5.28,12.28 4.25,12.71 3.88,13.6 C3.51,14.49 3.94,15.51 4.82,15.87 M22.86,12.3 C22.2936693,12.5998609 21.6087346,12.5662016 21.0745334,12.2122578 C20.5403323,11.858314 20.2423079,11.2406977 20.2976527,10.6022746 C20.3529974,9.96385155 20.7528592,9.40673483 21.34,9.15 C22.2,8.74 23.25,9.11 23.67,9.98 C24.09,10.85 23.72,11.89 22.86,12.3 M27.18,15.84 C26.28,16.21 25.26,15.79 24.89,14.9 C24.52,14.01 24.94,12.98 25.84,12.61 C26.72,12.25 27.75,12.68 28.12,13.57 C28.49,14.46 28.06,15.48 27.18,15.84 M16,25.68 C19.59,25.68 22.99,25.92 26.02,26.36 C26.88,22.75 27.93,20.68 29.01,19.2 L26.98,18.48 C27.18,19.51 27.21,19.99 26.98,20.66 C26.64,20.33 26.33,19.73 26.08,18.81 L25.09,22.09 C25.69,21.68 26.15,21.41 26.68,21.4 C25.74,23.42 24.57,23.94 23.81,23.8 C22.88,23.63 22.46,22.8 22.6,22.1 C22.81,21.11 23.83,20.85 24.31,22 C25.22,20.14 23.68,19.56 22.68,20.11 C24.21,18.59 24.38,17.23 23.15,15.59 C21.43,16.9 21.41,18.2 22.18,20.03 C21.18,18.88 19.62,19.5 20.18,21.35 C20.9,20.23 21.86,20.93 21.71,22 C21.58,22.93 20.36,23.68 18.84,23.54 C16.66,23.34 16.53,21.83 16.47,20.59 C17.01,20.49 17.97,20.99 18.8,22.15 L19.1,18.67 C18.2,19.6 17.39,19.78 16.48,19.81 C16.78,18.87 18.17,17.33 18.17,17.33 L13.83,17.33 C13.83,17.33 15.21,18.87 15.52,19.81 C14.61,19.78 13.8,19.6 12.9,18.67 L13.2,22.15 C14.02,20.99 14.99,20.49 15.53,20.59 C15.48,21.84 15.35,23.34 13.16,23.54 C11.64,23.67 10.41,22.92 10.29,22 C10.14,20.94 11.1,20.23 11.82,21.35 C12.38,19.5 10.82,18.88 9.82,20.03 C10.59,18.2 10.57,16.9 8.85,15.59 C7.62,17.23 7.79,18.58 9.32,20.11 C8.33,19.56 6.78,20.14 7.69,22 C8.17,20.84 9.19,21.1 9.4,22.1 C9.54,22.8 9.12,23.63 8.19,23.8 C7.43,23.94 6.26,23.42 5.32,21.4 C5.85,21.41 6.31,21.68 6.91,22.09 L5.92,18.81 C5.67,19.73 5.35,20.33 5.02,20.66 C4.79,20 4.83,19.52 5.02,18.48 L2.99,19.2 C4.07,20.67 5.12,22.74 5.98,26.36 C9.01,25.93 12.4,25.68 15.99,25.68" id="Shape" fill="#FFFFFF"></path>
        </g>
        <g id="Group-5" transform="translate(6.000000, 6.000000)">
            <circle id="Oval" fill="#0B0C0C" cx="14" cy="14" r="14"></circle>
            <g id="schedule_48dp_E8EAED_FILL1_wght700_GRAD200_opsz48" transform="translate(2.333333, 2.333333)" fill="#A66BB7" fill-rule="nonzero">
                <path d="M12.1561505,10.9506891 L12.1561505,4.81890612 C12.1561505,4.398196 12.0024482,4.03174945 11.6950436,3.71956647 C11.3876389,3.40738348 11.0095697,3.25129199 10.5608359,3.25129199 C10.1118271,3.25129199 9.72248451,3.40738348 9.39280814,3.71956647 C9.0628568,4.03174945 8.89788114,4.398196 8.89788114,4.81890612 L8.89788114,11.5315102 C8.89788114,11.7807206 8.93912505,12.0162647 9.02161289,12.2381424 C9.10410072,12.4600201 9.22783247,12.6532252 9.39280814,12.8177577 L14.878249,18.3245047 C15.2235981,18.6460666 15.6330127,18.8068475 16.1064929,18.8068475 C16.579973,18.8068475 16.9885628,18.6460666 17.3322621,18.3245047 C17.6209695,18.0565365 17.7721972,17.6746818 17.7859451,17.1789406 C17.7996931,16.6831993 17.6415914,16.2745478 17.3116401,15.9529859 L12.1561505,10.9506891 Z M11.4336047,22.872093 C9.8771447,22.872093 8.39602067,22.5746382 6.99023256,21.9797287 C5.58462532,21.385 4.36577519,20.5719509 3.33368217,19.5405814 C2.30177003,18.5092119 1.48817829,17.2910853 0.892906977,15.8862016 C0.297635659,14.4814987 0,13.0010982 0,11.445 C0,9.88437984 0.299896641,8.40976744 0.899689922,7.02116279 C1.49966408,5.63237726 2.31524548,4.42347545 3.34643411,3.39445736 C4.37762274,2.36543928 5.59385013,1.54244186 6.99511628,0.925465116 C8.39638243,0.308488372 9.87470284,0 11.4300775,0 C12.9919638,0 14.4667571,0.308307494 15.8544574,0.924922481 C17.2421576,1.54171835 18.4503359,2.36444444 19.4789922,3.39310078 C20.5076486,4.42175711 21.3303747,5.63020672 21.9471705,7.01844961 C22.5637855,8.40669251 22.872093,9.88202842 22.872093,11.4444574 C22.872093,13.0068863 22.5636047,14.4865633 21.9466279,15.8834884 C21.3296512,17.2804134 20.5066537,18.4944703 19.4776357,19.5256589 C18.4486176,20.5568475 17.2409819,21.3724289 15.8547287,21.9724031 C14.4684755,22.5721964 12.9947674,22.872093 11.4336047,22.872093 Z" id="Shape"></path>
            </g>
        </g>
    </g>
</svg>