<?xml version="1.0" encoding="UTF-8"?>
<svg width="32px" height="32px" viewBox="0 0 32 32" version="1.1" xmlns="http://www.w3.org/2000/svg" xmlns:xlink="http://www.w3.org/1999/xlink">
    <title>stopped</title>
    <g id="Page-1" stroke="none" stroke-width="1" fill="none" fill-rule="evenodd">
        <g id="Group" fill-rule="nonzero">
            <polygon id="Path" fill="#0B0C0C" points="0 0 32 0 32 32 0 32"></polygon>
            <path d="M16.88,7.87 L18.99,8.97 L18.99,5.86 L16.88,6.53 C16.82,6.45 16.75,6.38 16.68,6.32 C16.61,6.26 17.53,3.64 17.53,3.64 L14.49,3.64 L15.34,6.31 C15.26,6.38 15.19,6.45 15.14,6.52 C15.09,6.59 13.03,5.86 13.03,5.86 L13.03,8.97 L15.14,7.86 C15.2,7.95 15.28,8.02 15.36,8.08 L14.15,11.74 L14.15,11.75 C14.15,11.76 14.15,11.75 14.15,11.75 C14.09,11.93 14.06,12.13 14.06,12.33 C14.06,13.32 14.79,14.14 15.74,14.28 L15.78,14.28 C15.86,14.29 15.94,14.3 16.03,14.3 C16.11,14.3 16.2,14.3 16.28,14.28 L16.32,14.28 C17.27,14.14 18,13.32 18,12.33 C18,12.13 17.97,11.94 17.91,11.75 C17.85,11.56 17.91,11.75 17.91,11.74 L16.7,8.08 C16.78,8.02 16.86,7.95 16.92,7.86 M9.16,12.3 C9.72633072,12.5998609 10.4112654,12.5662016 10.9454666,12.2122578 C11.4796677,11.858314 11.7776921,11.2406977 11.7223473,10.6022746 C11.6670026,9.96385155 11.2671408,9.40673483 10.68,9.15 C9.82,8.74 8.77,9.11 8.35,9.98 C7.93,10.85 8.3,11.89 9.16,12.3 M4.82,15.87 C5.72,16.24 6.74,15.82 7.11,14.93 C7.48,14.04 7.06,13.01 6.16,12.64 C5.28,12.28 4.25,12.71 3.88,13.6 C3.51,14.49 3.94,15.51 4.82,15.87 M22.86,12.3 C22.2936693,12.5998609 21.6087346,12.5662016 21.0745334,12.2122578 C20.5403323,11.858314 20.2423079,11.2406977 20.2976527,10.6022746 C20.3529974,9.96385155 20.7528592,9.40673483 21.34,9.15 C22.2,8.74 23.25,9.11 23.67,9.98 C24.09,10.85 23.72,11.89 22.86,12.3 M27.18,15.84 C26.28,16.21 25.26,15.79 24.89,14.9 C24.52,14.01 24.94,12.98 25.84,12.61 C26.72,12.25 27.75,12.68 28.12,13.57 C28.49,14.46 28.06,15.48 27.18,15.84 M16,25.68 C19.59,25.68 22.99,25.92 26.02,26.36 C26.88,22.75 27.93,20.68 29.01,19.2 L26.98,18.48 C27.18,19.51 27.21,19.99 26.98,20.66 C26.64,20.33 26.33,19.73 26.08,18.81 L25.09,22.09 C25.69,21.68 26.15,21.41 26.68,21.4 C25.74,23.42 24.57,23.94 23.81,23.8 C22.88,23.63 22.46,22.8 22.6,22.1 C22.81,21.11 23.83,20.85 24.31,22 C25.22,20.14 23.68,19.56 22.68,20.11 C24.21,18.59 24.38,17.23 23.15,15.59 C21.43,16.9 21.41,18.2 22.18,20.03 C21.18,18.88 19.62,19.5 20.18,21.35 C20.9,20.23 21.86,20.93 21.71,22 C21.58,22.93 20.36,23.68 18.84,23.54 C16.66,23.34 16.53,21.83 16.47,20.59 C17.01,20.49 17.97,20.99 18.8,22.15 L19.1,18.67 C18.2,19.6 17.39,19.78 16.48,19.81 C16.78,18.87 18.17,17.33 18.17,17.33 L13.83,17.33 C13.83,17.33 15.21,18.87 15.52,19.81 C14.61,19.78 13.8,19.6 12.9,18.67 L13.2,22.15 C14.02,20.99 14.99,20.49 15.53,20.59 C15.48,21.84 15.35,23.34 13.16,23.54 C11.64,23.67 10.41,22.92 10.29,22 C10.14,20.94 11.1,20.23 11.82,21.35 C12.38,19.5 10.82,18.88 9.82,20.03 C10.59,18.2 10.57,16.9 8.85,15.59 C7.62,17.23 7.79,18.58 9.32,20.11 C8.33,19.56 6.78,20.14 7.69,22 C8.17,20.84 9.19,21.1 9.4,22.1 C9.54,22.8 9.12,23.63 8.19,23.8 C7.43,23.94 6.26,23.42 5.32,21.4 C5.85,21.41 6.31,21.68 6.91,22.09 L5.92,18.81 C5.67,19.73 5.35,20.33 5.02,20.66 C4.79,20 4.83,19.52 5.02,18.48 L2.99,19.2 C4.07,20.67 5.12,22.74 5.98,26.36 C9.01,25.93 12.4,25.68 15.99,25.68" id="Shape" fill="#FFFFFF"></path>
        </g>
        <g id="Group-7" transform="translate(6.000000, 6.000000)">
            <circle id="Oval" fill="#0B0C0C" cx="14" cy="14" r="14"></circle>
            <g id="cancel_48dp_E8EAED_FILL1_wght700_GRAD200_opsz48" transform="translate(2.333333, 2.333333)" fill="#619BCD" fill-rule="nonzero">
                <path d="M11.4171608,13.2679634 L15.8741957,17.6872269 C16.1008246,17.9390368 16.390406,18.0712369 16.7429398,18.0838274 C17.0954736,18.0964179 17.410236,17.9577966 17.6872269,17.6679634 C17.9642177,17.403563 18.1027132,17.1046647 18.1027132,16.7712684 C18.1027132,16.4378721 17.9642177,16.1262574 17.6872269,15.8364242 L13.2301919,11.4549323 L17.6872269,6.99789731 C17.9138558,6.77126842 18.0397607,6.48168705 18.0649417,6.12915322 C18.0901227,5.77661938 17.9642177,5.46185702 17.6872269,5.18486615 C17.3999118,4.90787528 17.0914447,4.76937984 16.7618255,4.76937984 C16.4322064,4.76937984 16.1363298,4.90787528 15.8741957,5.18486615 L11.4171608,9.64190109 L6.99789731,5.18486615 C6.74608743,4.95823726 6.45021082,4.83233232 6.11026747,4.80715133 C5.77032413,4.78197034 5.47444752,4.90787528 5.22263764,5.18486615 C4.92046578,5.47218123 4.76937984,5.78064834 4.76937984,6.11026747 C4.76937984,6.43988661 4.92046578,6.73576323 5.22263764,6.99789731 L9.60412961,11.4549323 L5.18486615,15.8741957 C4.93305627,16.1260056 4.80085608,16.4218822 4.78826559,16.7618255 C4.77567509,17.1017689 4.91429643,17.3976455 5.20412961,17.6494554 C5.46852999,17.9516272 5.76742832,18.1027132 6.1008246,18.1027132 C6.43422089,18.1027132 6.74583562,17.9516272 7.0356688,17.6494554 L11.4171608,13.2679634 Z M11.4262791,22.872093 C9.85010336,22.872093 8.36563307,22.5781654 6.97286822,21.9903101 C5.58010336,21.4024548 4.36369509,20.5885013 3.32364341,19.5484496 C2.28359173,18.5083979 1.46963824,17.2932558 0.881782946,15.9030233 C0.293927649,14.5127907 0,13.0295866 0,11.4534109 C0,9.87723514 0.293927649,8.39276486 0.881782946,7 C1.46963824,5.60723514 2.2821447,4.39037468 3.31930233,3.3494186 C4.35664083,2.30828165 5.57105943,1.4898062 6.96255814,0.893992248 C8.35423773,0.297997416 9.83888889,0 11.4165116,0 C12.9941344,0 14.4804134,0.297273902 15.8753488,0.891821705 C17.2702842,1.48636951 18.4875065,2.30294574 19.5270155,3.34155039 C20.5667054,4.38015504 21.384186,5.59620155 21.9794574,6.98968992 C22.5745478,8.38317829 22.872093,9.86981912 22.872093,11.4496124 C22.872093,13.0283204 22.5740956,14.513876 21.9781008,15.9062791 C21.3822868,17.2986822 20.5638114,18.5138243 19.5226744,19.5517054 C18.4817183,20.5895866 17.266124,21.4024548 15.8758915,21.9903101 C14.4856589,22.5781654 13.0024548,22.872093 11.4262791,22.872093 Z" id="Shape"></path>
            </g>
        </g>
    </g>
</svg>